<svg width="88" height="31" viewBox="0 0 88 31" fill="none" xmlns="http://www.w3.org/2000/svg">
<path d="M10.3536 0H15.886L26.2001 31H20.5886L17.9804 23.2718H8.18011L5.61148 31H0L10.3536 0ZM16.9925 19.0366L13.1198 6.24366L9.08901 19.0366H16.9925Z" fill="white"/>
<path d="M32.2018 0L39.1568 11.4394L46.0724 0H52L42.2787 15.7183L51.6839 31H45.7563L39.1568 19.9972L32.5179 31H26.5508L35.9559 15.7183L26.2346 0H32.2018Z" fill="white"/>
<path d="M55 31V0H60.5731V31H55Z" fill="#EC7979"/>
<path d="M88 5.2831H78.8326V31H73.2998V5.2831H64.1324V0H88V5.2831Z" fill="#EC7979"/>
</svg>
